<svg width="702" height="702" viewBox="0 0 702 702" fill="none" xmlns="http://www.w3.org/2000/svg"><path d="M351.118 701.324c193.576 0 350.5-156.924 350.5-350.5S544.694.324219 351.118.324219C292.053.324219 236.4 14.9344 187.576 40.7379c-18.835 9.9542-21.112 35.0985-6.048 50.1623l87.567 87.5678c9.807 9.807 24.506 12.373 37.9 8.77 14.068-3.786 28.86-5.804 44.123-5.804 93.552 0 169.391 75.838 169.391 169.39 0 93.552-75.839 169.391-169.391 169.391-15.317 0-30.16-2.033-44.273-5.845-13.403-3.619-28.119-1.058-37.936 8.759l-87.537 87.536c-15.059 15.059-12.789 40.195 6.035 50.156 48.864 25.859 104.578 40.503 163.711 40.503z" fill="#94D32E"/><path d="M65.949 554.657c11.4374 15.972 34.308 16.593 48.199 2.702l81.711-81.71c12.135-12.136 12.992-31.26 5.042-46.469-12.248-23.432-19.173-50.085-19.173-78.356 0-28.32 6.95-55.017 19.237-78.479 7.969-15.214 7.121-34.356-5.024-46.501l-81.693-81.693c-13.887-13.887-36.7486-13.272-48.1906 2.69C24.8666 204.301.618408 274.731.618408 350.824c0 76.027 24.205692 146.399 65.330592 203.833zM351.118 266.662c46.482 0 84.163 37.681 84.163 84.162 0 46.482-37.681 84.163-84.163 84.163-46.481 0-84.162-37.681-84.162-84.163 0-46.481 37.681-84.162 84.162-84.162z" fill="#94D32E"/></svg>