<svg width="5400" height="1080" viewBox="0 0 5400 1080" fill="none" xmlns="http://www.w3.org/2000/svg">
<path d="M1422.72 920.8C1384.56 920.8 1350.72 913.6 1321.2 899.2C1292.4 884.08 1268.64 865 1249.92 841.96V910H1149.48V73H1249.92V523.36C1267.92 499.6 1293.12 480.52 1325.52 466.12C1357.92 451.72 1394.64 444.52 1435.68 444.52C1475.28 444.52 1511.64 454.24 1544.76 473.68C1577.88 492.4 1604.52 519.4 1624.68 554.68C1644.84 589.96 1654.92 631.36 1654.92 678.88C1654.92 730 1644.12 773.56 1622.52 809.56C1600.92 845.56 1572.48 873.28 1537.2 892.72C1501.92 911.44 1463.76 920.8 1422.72 920.8ZM1401.12 834.4C1445.04 834.4 1481.04 820 1509.12 791.2C1537.92 761.68 1552.32 724.24 1552.32 678.88C1552.32 650.08 1545.48 624.16 1531.8 601.12C1518.84 577.36 1500.84 558.64 1477.8 544.96C1455.48 531.28 1429.92 524.44 1401.12 524.44C1363.68 524.44 1331.28 534.52 1303.92 554.68C1276.56 574.84 1258.56 600.76 1249.92 632.44V724.24C1258.56 755.92 1276.2 782.2 1302.84 803.08C1329.48 823.96 1362.24 834.4 1401.12 834.4ZM1976.52 920.8C1934.04 920.8 1895.52 911.8 1860.96 893.8C1827.12 875.8 1800.12 849.52 1779.96 814.96C1760.52 779.68 1750.8 736.84 1750.8 686.44C1750.8 636.04 1760.88 592.84 1781.04 556.84C1801.92 520.84 1829.64 493.12 1864.2 473.68C1899.48 454.24 1938 444.52 1979.76 444.52C2020.08 444.52 2054.28 453.16 2082.36 470.44C2110.44 487.72 2132.4 508.6 2148.24 533.08L2155.8 462.88H2248.68V910H2148.24V836.56C2139.6 848.08 2127 860.32 2110.44 873.28C2094.6 886.24 2075.16 897.4 2052.12 906.76C2029.8 916.12 2004.6 920.8 1976.52 920.8ZM2003.52 837.64C2040.24 837.64 2071.56 827.56 2097.48 807.4C2123.4 786.52 2140.32 758.44 2148.24 723.16V634.6C2139.6 603.64 2121.6 578.08 2094.24 557.92C2066.88 537.76 2035.56 527.68 2000.28 527.68C1972.92 527.68 1948.08 534.16 1925.76 547.12C1903.44 560.08 1885.44 578.08 1871.76 601.12C1858.8 624.16 1852.32 650.8 1852.32 681.04C1852.32 710.56 1859.16 737.2 1872.84 760.96C1886.52 784 1904.88 802.72 1927.92 817.12C1950.96 830.8 1976.16 837.64 2003.52 837.64ZM2549.9 918.64C2517.5 918.64 2486.18 913.24 2455.94 902.44C2426.42 890.92 2401.94 874 2382.5 851.68L2425.7 793.36C2443.7 811.36 2462.78 825.04 2482.94 834.4C2503.1 843.04 2522.54 847.36 2541.26 847.36C2562.86 847.36 2581.58 843.04 2597.42 834.4C2613.98 825.76 2622.26 811 2622.26 790.12C2622.26 774.28 2616.86 761.68 2606.06 752.32C2595.98 742.96 2582.66 735.76 2566.1 730.72C2550.26 724.96 2533.7 719.2 2516.42 713.44C2440.1 688.96 2401.94 645.4 2401.94 582.76C2401.94 559.72 2407.7 537.76 2419.22 516.88C2431.46 496 2449.1 479.08 2472.14 466.12C2495.9 453.16 2525.06 446.68 2559.62 446.68C2590.58 446.68 2618.3 450.64 2642.78 458.56C2667.26 466.48 2690.3 479.08 2711.9 496.36L2671.94 557.92C2658.98 544.96 2643.5 535.24 2625.5 528.76C2608.22 521.56 2592.38 517.6 2577.98 516.88C2558.54 516.88 2541.26 521.56 2526.14 530.92C2511.74 540.28 2504.54 553.24 2504.54 569.8C2503.82 584.92 2508.5 597.16 2518.58 606.52C2528.66 615.16 2541.62 622.36 2557.46 628.12C2574.02 633.88 2590.58 639.28 2607.14 644.32C2639.54 655.12 2666.9 669.88 2689.22 688.6C2712.26 707.32 2723.78 734.68 2723.78 770.68C2723.78 811 2709.38 845.92 2680.58 875.44C2651.78 904.24 2608.22 918.64 2549.9 918.64ZM3071.76 920.8C3021.36 920.8 2977.44 910.72 2940 890.56C2903.28 869.68 2874.84 841.24 2854.68 805.24C2835.24 769.24 2825.52 728.56 2825.52 683.2C2825.52 639.28 2836.32 599.32 2857.92 563.32C2880.24 526.6 2910.12 497.8 2947.56 476.92C2985.72 455.32 3027.84 444.52 3073.92 444.52C3132.96 444.52 3181.92 461.8 3220.8 496.36C3259.68 530.92 3286.32 578.44 3300.72 638.92L2946.48 763.12C2958.72 785.44 2976 803.08 2998.32 816.04C3020.64 828.28 3045.84 834.4 3073.92 834.4C3094.08 834.4 3113.16 830.8 3131.16 823.6C3149.16 816.4 3166.44 807.04 3183 795.52L3229.44 870.04C3206.4 885.16 3180.84 897.4 3152.76 906.76C3125.4 916.12 3098.4 920.8 3071.76 920.8ZM2924.88 677.8C2924.16 686.44 2924.52 694.72 2925.96 702.64L3186.24 606.52C3176.16 584.92 3161.4 565.84 3141.96 549.28C3123.24 532.72 3098.04 524.44 3066.36 524.44C3025.32 524.44 2991.48 538.84 2964.84 567.64C2938.2 596.44 2924.88 633.16 2924.88 677.8ZM3425.5 73H3525.94V910H3425.5V73ZM3700.77 462.88H3801.21V910H3700.77V462.88ZM3693.21 301.96C3693.21 285.4 3699.33 272.08 3711.57 262C3724.53 251.2 3738.57 245.8 3753.69 245.8C3768.81 245.8 3782.49 251.2 3794.73 262C3806.97 272.08 3813.09 285.4 3813.09 301.96C3813.09 318.52 3806.97 332.2 3794.73 343C3782.49 353.08 3768.81 358.12 3753.69 358.12C3738.57 358.12 3724.53 353.08 3711.57 343C3699.33 332.2 3693.21 318.52 3693.21 301.96ZM4066.76 462.88L4073.24 548.2C4090.52 515.8 4113.92 490.6 4143.44 472.6C4173.68 453.88 4208.24 444.52 4247.12 444.52C4283.84 444.52 4314.44 453.16 4338.92 470.44C4364.12 487.72 4379.6 511.12 4385.36 540.64C4403.36 510.4 4426.76 487 4455.56 470.44C4485.08 453.16 4516.4 444.52 4549.52 444.52C4592.72 444.52 4626.92 457.12 4652.12 482.32C4678.04 507.52 4691.72 539.56 4693.16 578.44V910H4592.72V616.24C4591.28 593.2 4585.16 574.12 4574.36 559C4564.28 543.16 4546.64 534.52 4521.44 533.08C4494.8 533.08 4471.4 541 4451.24 556.84C4431.08 571.96 4415.24 592.12 4403.72 617.32C4392.2 642.52 4386.08 669.16 4385.36 697.24V910H4283.84V616.24C4283.12 593.2 4277 574.12 4265.48 559C4254.68 543.16 4236.32 534.52 4210.4 533.08C4184.48 533.08 4161.44 541 4141.28 556.84C4121.12 571.96 4105.28 592.12 4093.76 617.32C4082.24 642.52 4076.48 669.52 4076.48 698.32V910H3976.04V462.88H4066.76ZM5074.61 920.8C5024.21 920.8 4980.29 910.72 4942.85 890.56C4906.13 869.68 4877.69 841.24 4857.53 805.24C4838.09 769.24 4828.37 728.56 4828.37 683.2C4828.37 639.28 4839.17 599.32 4860.77 563.32C4883.09 526.6 4912.97 497.8 4950.41 476.92C4988.57 455.32 5030.69 444.52 5076.77 444.52C5135.81 444.52 5184.77 461.8 5223.65 496.36C5262.53 530.92 5289.17 578.44 5303.57 638.92L4949.33 763.12C4961.57 785.44 4978.85 803.08 5001.17 816.04C5023.49 828.28 5048.69 834.4 5076.77 834.4C5096.93 834.4 5116.01 830.8 5134.01 823.6C5152.01 816.4 5169.29 807.04 5185.85 795.52L5232.29 870.04C5209.25 885.16 5183.69 897.4 5155.61 906.76C5128.25 916.12 5101.25 920.8 5074.61 920.8ZM4927.73 677.8C4927.01 686.44 4927.37 694.72 4928.81 702.64L5189.09 606.52C5179.01 584.92 5164.25 565.84 5144.81 549.28C5126.09 532.72 5100.89 524.44 5069.21 524.44C5028.17 524.44 4994.33 538.84 4967.69 567.64C4941.05 596.44 4927.73 633.16 4927.73 677.8Z" fill="#0A1233"/>
<rect x="93" y="80" width="496" height="920" rx="128" fill="#009242"/>
<rect x="637" y="462" width="350" height="541" rx="128" fill="#1A6AE3"/>
<rect x="637" y="80" width="350" height="164" rx="82" fill="#FFC71E"/>
<rect x="637" y="271" width="350" height="164" rx="82" fill="#F94E1E"/>
</svg>
