<svg width="48" height="48" viewBox="0 0 48 48" fill="none" xmlns="http://www.w3.org/2000/svg">
<g clip-path="url(#clip0_1720_3937)">
<path d="M3.62228 20.4213C3.52881 20.4213 3.50544 20.3746 3.55218 20.3044L4.04293 19.6735C4.08967 19.6034 4.20651 19.5566 4.29999 19.5566H12.6427C12.7362 19.5566 12.7596 19.6267 12.7128 19.6969L12.3156 20.3044C12.2688 20.3746 12.152 20.4447 12.0819 20.4447L3.62228 20.4213Z" fill="#00ACD7"/>
<path d="M0.0934761 22.5717C0 22.5717 -0.023369 22.5249 0.023369 22.4548L0.514119 21.8239C0.560857 21.7538 0.677702 21.707 0.771178 21.707H11.4275C11.5209 21.707 11.5677 21.7771 11.5443 21.8472L11.3574 22.4081C11.334 22.5016 11.2405 22.5483 11.147 22.5483L0.0934761 22.5717Z" fill="#00ACD7"/>
<path d="M5.74875 24.7213C5.65527 24.7213 5.6319 24.6512 5.67864 24.5811L6.00581 23.9969C6.05255 23.9268 6.14602 23.8567 6.2395 23.8567H10.9133C11.0068 23.8567 11.0535 23.9268 11.0535 24.0203L11.0068 24.5811C11.0068 24.6746 10.9133 24.7447 10.8432 24.7447L5.74875 24.7213Z" fill="#00ACD7"/>
<path d="M30.006 20.0007C28.5337 20.3746 27.5289 20.655 26.08 21.0289C25.7294 21.1224 25.7061 21.1458 25.4023 20.7952C25.0517 20.398 24.7947 20.1409 24.3039 19.9072C22.8317 19.1828 21.4062 19.3931 20.0741 20.2578C18.485 21.286 17.6671 22.805 17.6905 24.6979C17.7139 26.5674 18.9992 28.1098 20.8453 28.3668C22.4344 28.5771 23.7664 28.0163 24.818 26.8245C25.0284 26.5674 25.2153 26.287 25.449 25.9598C24.6077 25.9598 23.5561 25.9598 20.9388 25.9598C20.448 25.9598 20.3312 25.656 20.4948 25.2587C20.7986 24.5343 21.3594 23.3191 21.6866 22.7115C21.7567 22.5713 21.9203 22.3376 22.2708 22.3376C23.4626 22.3376 27.856 22.3376 30.7772 22.3376C30.7304 22.9686 30.7304 23.5995 30.6369 24.2305C30.3799 25.9131 29.7489 27.4554 28.7207 28.8108C27.0381 31.0309 24.8414 32.4097 22.0605 32.7836C19.7703 33.0874 17.6438 32.6433 15.7742 31.2412C14.0449 29.9325 13.0634 28.2032 12.8064 26.0533C12.5026 23.5061 13.2504 21.2159 14.7927 19.2061C16.4519 17.0328 18.6486 15.6541 21.3361 15.1633C23.5328 14.766 25.636 15.0231 27.5289 16.3084C28.7674 17.1263 29.6554 18.248 30.2397 19.6034C30.3799 19.8137 30.2864 19.9306 30.006 20.0007Z" fill="#00ACD7"/>
<path d="M37.7411 32.9239C35.6145 32.8772 33.6748 32.2696 32.039 30.8675C30.6602 29.6756 29.7956 28.1566 29.5152 26.3572C29.0945 23.7165 29.8189 21.3796 31.408 19.2998C33.114 17.0564 35.1705 15.8879 37.9514 15.3972C40.335 14.9765 42.5784 15.2102 44.6115 16.589C46.4577 17.8509 47.6028 19.5568 47.9066 21.8003C48.3039 24.9551 47.3925 27.5257 45.2191 29.7224C43.6768 31.2881 41.7839 32.2696 39.6106 32.7136C38.9796 32.8305 38.3486 32.8538 37.7411 32.9239ZM43.3029 23.4828C43.2795 23.179 43.2795 22.9454 43.2328 22.7117C42.8121 20.3981 40.6856 19.0895 38.4655 19.6036C36.2922 20.0943 34.89 21.4731 34.3759 23.6698C33.9553 25.4926 34.8433 27.3387 36.5259 28.0865C37.8112 28.6474 39.0965 28.5773 40.335 27.9463C42.1812 26.9882 43.186 25.4926 43.3029 23.4828Z" fill="#00ACD7"/>
</g>
<defs>
<clipPath id="clip0_1720_3937">
<rect width="48" height="17.9241" fill="white" transform="translate(0 15)"/>
</clipPath>
</defs>
</svg>