<svg width="48" height="48" viewBox="0 0 48 48" fill="none" xmlns="http://www.w3.org/2000/svg">
<g clip-path="url(#clip0_941_5132)">
<g clip-path="url(#clip1_941_5132)">
<path d="M24.0009 28.1864C26.3637 28.1864 28.2792 26.271 28.2792 23.9081C28.2792 21.5453 26.3637 19.6299 24.0009 19.6299C21.6381 19.6299 19.7227 21.5453 19.7227 23.9081C19.7227 26.271 21.6381 28.1864 24.0009 28.1864Z" fill="#61DAFB"/>
<path d="M24.0014 32.6736C36.68 32.6736 46.958 28.7493 46.958 23.9084C46.958 19.0675 36.68 15.1432 24.0014 15.1432C11.3229 15.1432 1.04492 19.0675 1.04492 23.9084C1.04492 28.7493 11.3229 32.6736 24.0014 32.6736Z" stroke="#61DAFB" stroke-width="2.08696"/>
<path d="M16.4117 28.2909C22.751 39.2709 31.2885 46.2097 35.4809 43.7892C39.6732 41.3688 37.9328 30.5056 31.5935 19.5257C25.2542 8.54577 16.7167 1.60694 12.5243 4.02738C8.33199 6.44783 10.0724 17.311 16.4117 28.2909Z" stroke="#61DAFB" stroke-width="2.08696"/>
<path d="M16.4122 19.5256C10.0729 30.5056 8.33251 41.3687 12.5248 43.7892C16.7172 46.2096 25.2547 39.2708 31.594 28.2908C37.9333 17.3109 39.6737 6.44775 35.4814 4.0273C31.289 1.60686 22.7515 8.54569 16.4122 19.5256Z" stroke="#61DAFB" stroke-width="2.08696"/>
</g>
</g>
<defs>
<clipPath id="clip0_941_5132">
<rect width="48" height="48" fill="white"/>
</clipPath>
<clipPath id="clip1_941_5132">
<rect width="48" height="42.7064" fill="white" transform="translate(0 2.55518)"/>
</clipPath>
</defs>
</svg>
