<svg width="48" height="48" viewBox="0 0 48 48" fill="#ffffff" xmlns="http://www.w3.org/2000/svg">
<g clip-path="url(#clip0_1740_3958)">
<path d="M48 0H0V48H48V0Z" fill="url(#paint0_linear_1740_3958)"/>
<path fill-rule="evenodd" clip-rule="evenodd" d="M16.6244 32.2242L15.776 31.3758L8.4002 38.7516V34.8H7.2002V40.2C7.2002 40.5312 7.4684 40.8 7.8002 40.8H13.2002V39.6H9.2486L16.6244 32.2242ZM40.2002 7.20001H34.8002V8.40001H38.7518L31.376 15.7758L32.2244 16.6242L39.6002 9.24841V13.2H40.8002V7.80001C40.8002 7.46881 40.532 7.20001 40.2002 7.20001ZM25.8002 35.4H35.4002V25.8H25.8002V35.4ZM36.6002 25.2V36C36.6002 36.3312 36.332 36.6 36.0002 36.6H25.2002C24.8684 36.6 24.6002 36.3312 24.6002 36V25.2C24.6002 24.8688 24.8684 24.6 25.2002 24.6H36.0002C36.332 24.6 36.6002 24.8688 36.6002 25.2ZM12.6002 22.2H22.2002V12.6H12.6002V22.2ZM23.4002 12V22.8C23.4002 23.1312 23.132 23.4 22.8002 23.4H12.0002C11.6684 23.4 11.4002 23.1312 11.4002 22.8V12C11.4002 11.6688 11.6684 11.4 12.0002 11.4H22.8002C23.132 11.4 23.4002 11.6688 23.4002 12ZM22.8002 24.6H12.0002C11.6684 24.6 11.4002 24.8688 11.4002 25.2V34.0542L12.6002 32.8542V25.8H22.2002V35.4H15.1454L13.9454 36.6H22.8002C23.132 36.6 23.4002 36.3312 23.4002 36V25.2C23.4002 24.8688 23.132 24.6 22.8002 24.6ZM35.4002 15.1452L36.6002 13.9452V22.8C36.6002 23.1312 36.332 23.4 36.0002 23.4H25.2002C24.8684 23.4 24.6002 23.1312 24.6002 22.8V12C24.6002 11.6688 24.8684 11.4 25.2002 11.4H34.055L32.855 12.6H25.8002V22.2H35.4002V15.1452Z" fill="white"/>
</g>
<defs>
<linearGradient id="paint0_linear_1740_3958" x1="48" y1="0" x2="0.315791" y2="47.6842" gradientUnits="userSpaceOnUse">
<stop stop-color="#FF9900"/>
<stop offset="1" stop-color="#C8511B"/>
</linearGradient>
<clipPath id="clip0_1740_3958">
<rect width="48" height="48" rx="8.74" fill="white"/>
</clipPath>
</defs>
</svg>
