<svg width="48" height="48" viewBox="0 0 48 48" fill="none" xmlns="http://www.w3.org/2000/svg">
<g clip-path="url(#clip0_941_5131)">
<path d="M23.8336 0.754112C23.4092 0.775477 22.9934 0.880681 22.6106 1.06355L5.92354 9.03685C5.49162 9.24311 5.11211 9.54324 4.81319 9.91493C4.51428 10.2866 4.30364 10.7203 4.19693 11.1839L0.0801847 29.0939C-0.0148872 29.5065 -0.0255348 29.9339 0.0488719 30.3507C0.123279 30.7675 0.281228 31.1653 0.513372 31.5204C0.569657 31.6073 0.630192 31.6913 0.69476 31.7723L12.245 46.1331C12.544 46.5047 12.9235 46.8048 13.3554 47.0109C13.7873 47.2171 14.2605 47.3241 14.7398 47.324L33.2625 47.3198C33.7416 47.3201 34.2147 47.2134 34.6466 47.0077C35.0785 46.8019 35.4581 46.5023 35.7573 46.1311L47.3032 31.768C47.6023 31.3962 47.8131 30.9624 47.9199 30.4986C48.0267 30.0349 48.0267 29.5533 47.92 29.0896L43.7967 11.1796C43.69 10.7161 43.4794 10.2824 43.1805 9.91068C42.8816 9.539 42.5021 9.23888 42.0702 9.03261L25.3808 1.06348C24.8993 0.833481 24.3673 0.727103 23.8336 0.754112Z" fill="#326CE5"/>
<path d="M23.9988 6.84912C23.4472 6.84919 22.9999 7.34603 23 7.95889C23 7.96832 23.0019 7.97733 23.0021 7.98662C23.0013 8.06994 22.9973 8.17026 23 8.24272C23.0131 8.59621 23.0902 8.86679 23.1366 9.19249C23.2206 9.88949 23.2909 10.4673 23.2476 11.0044C23.2053 11.2069 23.0561 11.3921 22.9232 11.5208L22.8997 11.9434C22.2921 11.9934 21.6888 12.0861 21.0942 12.2208C18.5007 12.8097 16.2679 14.1456 14.5678 15.9493C14.4465 15.8655 14.3263 15.7801 14.2072 15.6932C14.0289 15.7173 13.8486 15.7723 13.6138 15.6355C13.1669 15.3347 12.7598 14.9194 12.2672 14.4191C12.0415 14.1798 11.878 13.9519 11.6098 13.7212C11.549 13.6688 11.456 13.598 11.3879 13.544C11.1782 13.3769 10.931 13.2897 10.6922 13.2816C10.3851 13.2711 10.0896 13.3911 9.89614 13.6337C9.55222 14.065 9.66237 14.7242 10.1415 15.1062C10.1464 15.1101 10.1516 15.1131 10.1565 15.117C10.2223 15.1703 10.303 15.2387 10.3635 15.2834C10.6481 15.4935 10.9081 15.6011 11.1915 15.7679C11.7889 16.1368 12.2842 16.4426 12.6769 16.8115C12.8303 16.975 12.8572 17.2631 12.8776 17.3877L13.1977 17.6737C11.484 20.2527 10.6909 23.4384 11.1596 26.6842L10.7413 26.8059C10.631 26.9482 10.4752 27.1722 10.3123 27.2391C9.79835 27.401 9.21997 27.4604 8.52173 27.5336C8.19392 27.5609 7.91105 27.5446 7.56343 27.6104C7.48694 27.6249 7.3804 27.6527 7.29668 27.6723L7.28814 27.6745C7.28356 27.6755 7.27762 27.6778 7.27318 27.6787C6.68449 27.821 6.30635 28.3621 6.42805 28.8952C6.54988 29.4285 7.12492 29.7527 7.71709 29.6251C7.7214 29.6241 7.72761 29.6239 7.73212 29.623C7.73874 29.6215 7.74462 29.6182 7.75124 29.6166C7.83388 29.5985 7.93727 29.5783 8.00953 29.559C8.3512 29.4675 8.5987 29.3331 8.90588 29.2153C9.56676 28.9783 10.1141 28.7803 10.6474 28.7031C10.87 28.6857 11.1047 28.8405 11.2215 28.9059L11.6568 28.8312C12.6587 31.9374 14.7583 34.448 17.417 36.0234L17.2355 36.4588C17.301 36.6278 17.3731 36.8565 17.3243 37.0236C17.1305 37.5262 16.7985 38.0568 16.4203 38.6484C16.2373 38.9217 16.0498 39.1338 15.8846 39.4466C15.8451 39.5215 15.7947 39.6365 15.7566 39.7155C15.4999 40.2648 15.6882 40.8973 16.1813 41.1348C16.6775 41.3736 17.2934 41.1217 17.5599 40.5713C17.5603 40.5705 17.5617 40.57 17.5621 40.5692C17.5624 40.5685 17.5618 40.5677 17.5621 40.5671C17.6001 40.4891 17.6538 40.3865 17.6859 40.3131C17.8274 39.9889 17.8745 39.7111 17.974 39.3975C18.2383 38.7337 18.3835 38.0372 18.7472 37.6032C18.8469 37.4843 19.0093 37.4386 19.1777 37.3935L19.4039 36.9837C21.7217 37.8734 24.316 38.1122 26.9076 37.5237C27.4901 37.3913 28.0627 37.2187 28.6214 37.0072C28.685 37.12 28.8031 37.3368 28.8348 37.3914C29.006 37.447 29.1927 37.4758 29.3449 37.7008C29.6171 38.1659 29.8032 38.716 30.03 39.3804C30.1295 39.694 30.1787 39.9719 30.3202 40.296C30.3524 40.3699 30.406 40.4739 30.444 40.5521C30.71 41.1042 31.3279 41.3571 31.8248 41.1177C32.3179 40.8802 32.5064 40.2476 32.2496 39.6984C32.2113 39.6193 32.1589 39.5044 32.1193 39.4295C31.9541 39.1168 31.7667 38.9068 31.5836 38.6335C31.2055 38.042 30.8918 37.5505 30.6979 37.0477C30.6169 36.7885 30.7116 36.6272 30.7748 36.4588C30.737 36.4154 30.6561 36.1706 30.6083 36.0554C33.3713 34.424 35.4093 31.8197 36.3663 28.812C36.4956 28.8323 36.7202 28.8721 36.7932 28.8867C36.9434 28.7877 37.0815 28.6583 37.3524 28.6797C37.8856 28.7568 38.433 28.9549 39.0938 29.1919C39.401 29.3096 39.6485 29.4462 39.9902 29.5376C40.0624 29.5569 40.1658 29.575 40.2484 29.5931C40.255 29.5947 40.2609 29.598 40.2676 29.5995C40.2721 29.6005 40.2783 29.6006 40.2826 29.6017C40.8749 29.7291 41.45 29.405 41.5716 28.8717C41.6932 28.3386 41.3152 27.7973 40.7265 27.6553C40.6408 27.6358 40.5194 27.6027 40.4362 27.587C40.0887 27.5212 39.8059 27.5373 39.478 27.5102C38.7797 27.437 38.2013 27.3775 37.6874 27.2156C37.4779 27.1343 37.3289 26.885 37.2563 26.7824L36.8529 26.665C37.0621 25.152 37.0057 23.5773 36.6438 22.0018C36.2785 20.4116 35.6331 18.9573 34.7721 17.6759C34.8756 17.5818 35.071 17.4088 35.1264 17.3578C35.1426 17.1786 35.1287 16.9907 35.3142 16.7923C35.7069 16.4235 36.2022 16.1176 36.7996 15.7487C37.0831 15.5818 37.3452 15.4743 37.6298 15.2642C37.6942 15.2167 37.7821 15.1414 37.8497 15.0871C38.3287 14.7049 38.439 14.0457 38.095 13.6145C37.7511 13.1833 37.0845 13.1426 36.6054 13.5248C36.5372 13.5789 36.4447 13.6493 36.3834 13.702C36.1153 13.9327 35.9497 14.1605 35.724 14.3999C35.2314 14.9002 34.8243 15.3176 34.3773 15.6185C34.1836 15.7312 33.8999 15.6923 33.7712 15.6846L33.3913 15.9557C31.2251 13.6842 28.2758 12.232 25.1 11.9498C25.0912 11.8167 25.0796 11.5762 25.0765 11.5038C24.9465 11.3794 24.7895 11.2732 24.75 11.0044C24.7066 10.4673 24.7791 9.88949 24.8631 9.19249C24.9096 8.86679 24.9865 8.59628 24.9997 8.24272C25.0027 8.16241 24.9979 8.04576 24.9976 7.95889C24.9975 7.34603 24.5504 6.84912 23.9988 6.84912ZM22.7481 14.5962L22.4515 19.8356L22.4302 19.8463C22.4103 20.315 22.0245 20.6893 21.5509 20.6893C21.3569 20.6893 21.1778 20.627 21.0323 20.5207L21.0237 20.5249L16.7276 17.4795C18.048 16.1812 19.7369 15.2217 21.6832 14.7798C22.0348 14.7004 22.3903 14.6391 22.7481 14.5962ZM25.2516 14.5962C27.5239 14.8757 29.6255 15.9047 31.2358 17.4816L26.9675 20.5079L26.9524 20.5015C26.5736 20.7782 26.0398 20.7095 25.7445 20.3393C25.6278 20.1941 25.5605 20.0153 25.5525 19.8292L25.5482 19.8271L25.2516 14.5962ZM15.1697 19.4365L19.0923 22.9451L19.0881 22.9664C19.4421 23.2742 19.4943 23.8084 19.1991 24.1787C19.0826 24.3249 18.9226 24.4303 18.7423 24.4796L18.7381 24.4966L13.7099 25.9479C13.454 23.6078 14.0055 21.3331 15.1697 19.4365ZM32.8002 19.4386C33.383 20.3833 33.8243 21.4384 34.0871 22.5823C34.3466 23.7124 34.4118 24.8406 34.3047 25.9308L29.251 24.4753L29.2468 24.454C28.7942 24.3303 28.516 23.87 28.6214 23.4082C28.6624 23.2266 28.7604 23.0628 28.901 22.9408L28.8989 22.9302L32.8002 19.4387V19.4386ZM23.1942 23.2161H24.8012L25.8001 24.4647L25.4415 26.0226L23.9988 26.7162L22.5518 26.0205L22.1933 24.4625L23.1942 23.2161ZM28.3461 27.4888C28.4144 27.4854 28.4824 27.4915 28.5489 27.5037L28.5574 27.493L33.7584 28.3723C32.9973 30.5109 31.5407 32.3634 29.5946 33.6032L27.5757 28.7266L27.582 28.7181C27.3966 28.2871 27.5822 27.7818 28.0089 27.5763C28.1181 27.5237 28.2323 27.4945 28.3461 27.4888ZM19.6109 27.5101C20.0078 27.5157 20.3638 27.7912 20.4561 28.1952C20.4992 28.3844 20.4782 28.5717 20.407 28.7373L20.4219 28.7565L18.4243 33.584C16.5567 32.3855 15.0691 30.5911 14.2734 28.3894L19.4295 27.5144L19.4381 27.5251C19.4957 27.5145 19.5542 27.5093 19.6109 27.5101ZM23.9668 29.6252C24.1091 29.6202 24.2506 29.6502 24.3787 29.7126C24.5535 29.7968 24.6885 29.9293 24.7735 30.0882H24.7927L27.3345 34.6809C27.0009 34.7925 26.6618 34.8872 26.3187 34.9648C24.3747 35.4062 22.4369 35.2724 20.6823 34.6746L23.2177 30.0904H23.222C23.2946 29.9545 23.4016 29.84 23.5323 29.7584C23.663 29.6768 23.8128 29.6308 23.9668 29.6251V29.6252Z" fill="white" stroke="white" stroke-width="0.106709"/>
</g>
<defs>
<clipPath id="clip0_941_5131">
<rect width="48" height="48" fill="white"/>
</clipPath>
</defs>
</svg>
