<svg width="48" height="48" viewBox="0 0 48 48" fill="none" xmlns="http://www.w3.org/2000/svg">
<g clip-path="url(#clip0_2272_22238)">
<g clip-path="url(#clip1_2272_22238)">
<path d="M22.4299 0.0375632C22.3268 0.0469373 21.9987 0.0797466 21.7034 0.103182C14.8932 0.717184 8.51411 4.39183 4.47388 10.0397C2.2241 13.18 0.78518 16.7422 0.241483 20.5152C0.0493141 21.8323 0.0258789 22.2213 0.0258789 24.0071C0.0258789 25.7929 0.0493141 26.1819 0.241483 27.4989C1.54448 36.5028 7.95167 44.0676 16.6414 46.8705C18.1975 47.372 19.838 47.7142 21.7034 47.9204C22.4299 48.0001 25.5703 48.0001 26.2968 47.9204C29.5167 47.5642 32.2446 46.7674 34.935 45.3941C35.3474 45.1832 35.4271 45.1269 35.3709 45.08C35.3334 45.0519 33.5757 42.6943 31.4666 39.8446L27.6326 34.6654L22.8283 27.5552C20.1848 23.6462 18.0101 20.4496 17.9913 20.4496C17.9726 20.4449 17.9538 23.604 17.9444 27.4614C17.9304 34.2155 17.9257 34.4873 17.8413 34.6467C17.7195 34.8763 17.6257 34.9701 17.4289 35.0732C17.2789 35.1482 17.1476 35.1623 16.4399 35.1623H15.629L15.4134 35.0263C15.2728 34.9373 15.1697 34.8201 15.0994 34.6842L15.001 34.4733L15.0104 25.0757L15.0244 15.6735L15.1697 15.4907C15.2447 15.3923 15.4041 15.2658 15.5166 15.2048C15.7087 15.1111 15.7837 15.1017 16.5946 15.1017C17.5507 15.1017 17.7101 15.1392 17.9585 15.4111C18.0288 15.4861 20.6301 19.4044 23.7423 24.1243C26.8545 28.8441 31.1103 35.2888 33.2008 38.4526L36.9973 44.2036L37.1894 44.077C38.8908 42.9709 40.6907 41.396 42.1155 39.7556C45.148 36.2731 47.1025 32.0266 47.7587 27.4989C47.9509 26.1819 47.9743 25.7929 47.9743 24.0071C47.9743 22.2213 47.9509 21.8323 47.7587 20.5152C46.4557 11.5114 40.0485 3.94656 31.3588 1.14371C29.8261 0.646879 28.195 0.304725 26.3671 0.0984947C25.9171 0.0516243 22.819 6.68594e-05 22.4299 0.0375632ZM32.2446 14.5393C32.4696 14.6518 32.6524 14.8674 32.718 15.0923C32.7555 15.2142 32.7649 17.8202 32.7555 23.6931L32.7414 32.1204L31.2556 29.8425L29.7652 27.5646V21.4386C29.7652 17.478 29.7839 15.2517 29.812 15.1439C29.887 14.8814 30.0511 14.6752 30.2761 14.5533C30.4682 14.4549 30.5385 14.4455 31.2744 14.4455C31.9681 14.4455 32.0899 14.4549 32.2446 14.5393Z" fill="white"/>
<path d="M36.7627 44.3067C36.5986 44.4098 36.5471 44.4801 36.6924 44.4004C36.7955 44.3395 36.9642 44.2129 36.9361 44.2083C36.922 44.2083 36.8423 44.2551 36.7627 44.3067ZM36.4393 44.5176C36.3549 44.5832 36.3549 44.5879 36.458 44.5363C36.5142 44.5082 36.5611 44.4754 36.5611 44.466C36.5611 44.4285 36.5377 44.4379 36.4393 44.5176ZM36.2049 44.6582C36.1205 44.7238 36.1205 44.7285 36.2237 44.677C36.2799 44.6488 36.3268 44.616 36.3268 44.6067C36.3268 44.5692 36.3033 44.5785 36.2049 44.6582ZM35.9706 44.7988C35.8862 44.8644 35.8862 44.8691 35.9893 44.8176C36.0455 44.7894 36.0924 44.7566 36.0924 44.7473C36.0924 44.7098 36.069 44.7191 35.9706 44.7988ZM35.6143 44.9863C35.4362 45.08 35.4456 45.1175 35.6237 45.0285C35.7034 44.9863 35.7643 44.9441 35.7643 44.9347C35.7643 44.9019 35.7596 44.9066 35.6143 44.9863Z" fill="white"/>
</g>
</g>
<defs>
<clipPath id="clip0_2272_22238">
<rect width="48" height="48" fill="white"/>
</clipPath>
<clipPath id="clip1_2272_22238">
<rect width="48" height="48" fill="white"/>
</clipPath>
</defs>
</svg>