<svg width="48" height="48" viewBox="0 0 48 48" fill="none" xmlns="http://www.w3.org/2000/svg">
<g clip-path="url(#clip0_1720_3938)">
<g clip-path="url(#clip1_1720_3938)">
<path d="M23.797 0.0136719C11.6409 0.0136727 12.4 5.28527 12.4 5.28527L12.4136 10.7466H24.0138V12.3863H7.806C7.806 12.3863 0.0273438 11.5042 0.0273438 23.7697C0.0273429 36.0353 6.81673 35.6003 6.81673 35.6003H10.8687V29.9086C10.8687 29.9086 10.6503 23.1193 17.5496 23.1193H29.055C29.055 23.1193 35.5192 23.2238 35.5192 16.8719V6.3694C35.5192 6.3694 36.5006 0.0136719 23.797 0.0136719ZM17.4006 3.68617C18.5547 3.68617 19.4875 4.61899 19.4875 5.77313C19.4875 6.92727 18.5547 7.86009 17.4006 7.86009C16.2464 7.86009 15.3136 6.92727 15.3136 5.77313C15.3136 4.61899 16.2464 3.68617 17.4006 3.68617Z" fill="url(#paint0_linear_1720_3938)"/>
<path d="M24.1421 47.6486C36.2982 47.6486 35.5391 42.377 35.5391 42.377L35.5255 36.9157H23.9253V35.276H40.1331C40.1331 35.276 47.9117 36.1581 47.9117 23.8926C47.9117 11.627 41.1224 12.062 41.1224 12.062H37.0704V17.7537C37.0704 17.7537 37.2888 24.5431 30.3894 24.5431H18.8841C18.8841 24.5431 12.4199 24.4386 12.4199 30.7904V41.2929C12.4199 41.2929 11.4385 47.6486 24.1421 47.6486ZM30.5385 43.9761C29.3844 43.9761 28.4515 43.0433 28.4515 41.8892C28.4515 40.735 29.3844 39.8022 30.5385 39.8022C31.6926 39.8022 32.6255 40.735 32.6255 41.8892C32.6255 43.0433 31.6926 43.9761 30.5385 43.9761Z" fill="url(#paint1_linear_1720_3938)"/>
</g>
</g>
<defs>
<linearGradient id="paint0_linear_1720_3938" x1="1178.09" y1="1092.6" x2="7252.86" y2="7083.28" gradientUnits="userSpaceOnUse">
<stop stop-color="#387EB8"/>
<stop offset="1" stop-color="#366994"/>
</linearGradient>
<linearGradient id="paint1_linear_1720_3938" x1="1751.17" y1="1879.64" x2="8274.84" y2="8022.57" gradientUnits="userSpaceOnUse">
<stop stop-color="#FFE052"/>
<stop offset="1" stop-color="#FFC331"/>
</linearGradient>
<clipPath id="clip0_1720_3938">
<rect width="48" height="48" fill="white"/>
</clipPath>
<clipPath id="clip1_1720_3938">
<rect width="48" height="47.8125" fill="white"/>
</clipPath>
</defs>
</svg>
