<svg width="48" height="48" viewBox="0 0 48 48" fill="none" xmlns="http://www.w3.org/2000/svg">
<g clip-path="url(#clip0_2554_5408)">
<g clip-path="url(#clip1_2554_5408)">
<path d="M41.3897 6.34543C36.9558 -0.0410098 28.1287 -1.9122 21.7829 2.11492L10.5965 9.27424C7.54564 11.1861 5.43039 14.3183 4.82022 17.8573C4.29141 20.8268 4.73886 23.8776 6.16259 26.5217C5.18632 27.9861 4.53548 29.6132 4.25073 31.3217C3.59988 34.942 4.45412 38.6844 6.56937 41.6539C11.0439 48.0403 19.8304 49.9115 26.1762 45.8844L37.3626 38.7658C40.4134 36.8539 42.5287 33.7217 43.1389 30.1827C43.6677 27.2132 43.2202 24.1624 41.7965 21.5183C42.7728 20.0539 43.4236 18.4268 43.7084 16.7183C44.3999 13.0573 43.5456 9.31492 41.3897 6.34543Z" fill="#FF3E00"/>
<path d="M20.6845 42.2642C17.0641 43.1998 13.2811 41.7761 11.1658 38.7252C9.86414 36.9354 9.376 34.6981 9.7421 32.5015C9.82346 32.1354 9.90481 31.81 9.98617 31.4439L10.1896 30.793L10.7591 31.1998C12.1014 32.1761 13.5658 32.9083 15.1523 33.3964L15.5591 33.5185L15.5184 33.9252C15.4777 34.4947 15.6404 35.1049 15.9658 35.593C16.6167 36.5286 17.7557 36.9761 18.854 36.6913C19.098 36.61 19.3421 36.5286 19.5455 36.4066L30.6913 29.288C31.2607 28.9219 31.6268 28.393 31.7489 27.7422C31.8709 27.0914 31.7082 26.3998 31.3421 25.871C30.6913 24.9354 29.5523 24.5286 28.454 24.8134C28.2099 24.8947 27.9658 24.9761 27.7624 25.0981L23.4913 27.8236C22.7997 28.271 22.0268 28.5964 21.2133 28.7998C17.593 29.7354 13.8099 28.3117 11.6946 25.2608C10.4336 23.471 9.90481 21.2337 10.3116 19.0371C10.6777 16.9219 11.9794 15.01 13.8099 13.871L24.9963 6.75237C25.6879 6.30491 26.4607 5.97949 27.2743 5.73542C30.8946 4.79983 34.6777 6.22355 36.793 9.2744C38.0946 11.0642 38.5828 13.3015 38.2167 15.4981C38.1353 15.8642 38.054 16.1897 37.9319 16.5558L37.7285 17.2066L37.1591 16.7998C35.8167 15.8236 34.3523 15.0914 32.7658 14.6032L32.3591 14.4812L32.3997 14.0744C32.4404 13.5049 32.2777 12.8947 31.9523 12.4066C31.3014 11.471 30.1624 11.0642 29.0641 11.349C28.8201 11.4303 28.576 11.5117 28.3726 11.6337L17.2268 18.7524C16.6574 19.1185 16.2913 19.6473 16.1692 20.2981C16.0472 20.949 16.2099 21.6405 16.576 22.1693C17.2268 23.1049 18.3658 23.5117 19.4641 23.2269C19.7082 23.1456 19.9523 23.0642 20.1557 22.9422L24.4268 20.2168C25.1184 19.7693 25.8913 19.4439 26.7048 19.1998C30.3252 18.2642 34.1082 19.688 36.2235 22.7388C37.5252 24.5286 38.0133 26.7659 37.6472 28.9625C37.2811 31.0778 35.9794 32.9897 34.1489 34.1286L22.9624 41.2473C22.2709 41.6947 21.498 42.0202 20.6845 42.2642Z" fill="white"/>
</g>
</g>
<defs>
<clipPath id="clip0_2554_5408">
<rect width="48" height="48" fill="white"/>
</clipPath>
<clipPath id="clip1_2554_5408">
<rect width="39.9051" height="48" fill="white" transform="translate(4.04736)"/>
</clipPath>
</defs>
</svg>
